<svg width="60" height="50" viewBox="0 0 60 50" fill="none" xmlns="http://www.w3.org/2000/svg">
<rect width="60" height="50" fill="white"/>
<line y1="-0.5" x2="17.9998" y2="-0.5" transform="matrix(0 1 -1 -0.000421936 35.036 14.9999)" stroke="black"/>
<path d="M58 23.9826L52.9998 21.0958L53.0002 26.8693L58 23.9826ZM53.5 23.4826L1.99996 23.4826L2.00003 24.4826L53.5 24.4826L53.5 23.4826Z" fill="black"/>
<path d="M49.5 15.5L44.5 12.6132V18.3868L49.5 15.5ZM45 15L35.4999 15V16L45 16V15Z" fill="black"/>
<path d="M50 32.5L45 29.6132V35.3868L50 32.5ZM36 33H45.5V32L36 32V33Z" fill="black"/>
<path d="M11.5293 22H10.4014C10.3721 22 10.3574 21.9837 10.3574 21.9512V16.248H9.05859C9.02604 16.248 9.00977 16.2318 9.00977 16.1992L9.01953 15.0811C9.01953 15.055 9.03255 15.042 9.05859 15.042H12.8574C12.8932 15.042 12.9111 15.055 12.9111 15.0811V16.1992C12.9111 16.2318 12.8981 16.248 12.8721 16.248H11.5586L11.5684 21.9512C11.5684 21.9837 11.5553 22 11.5293 22ZM14.5713 22H13.4385C13.4124 22 13.3994 21.9837 13.3994 21.9512L13.4189 15.0811C13.4189 15.055 13.432 15.042 13.458 15.042H15.4795C15.8408 15.042 16.1729 15.1299 16.4756 15.3057C16.7783 15.4814 17.0192 15.7174 17.1982 16.0137C17.3805 16.3099 17.4717 16.6452 17.4717 17.0195C17.4717 17.2637 17.4342 17.485 17.3594 17.6836C17.2845 17.8822 17.1966 18.0498 17.0957 18.1865C16.998 18.3232 16.9085 18.4242 16.8271 18.4893C17.1885 18.8896 17.3691 19.36 17.3691 19.9004L17.3789 21.9512C17.3789 21.9837 17.3626 22 17.3301 22H16.1973C16.1712 22 16.1582 21.9902 16.1582 21.9707V19.9004C16.1582 19.6595 16.0736 19.4512 15.9043 19.2754C15.735 19.0996 15.5267 19.0117 15.2793 19.0117H14.6201L14.6104 21.9512C14.6104 21.9837 14.5973 22 14.5713 22ZM15.4795 16.2383H14.6201V17.8105H15.4795C15.6846 17.8105 15.8669 17.734 16.0264 17.5811C16.1891 17.4281 16.2705 17.2409 16.2705 17.0195C16.2705 16.8079 16.1924 16.6257 16.0361 16.4727C15.8799 16.3164 15.6943 16.2383 15.4795 16.2383ZM19.4053 22H18.2725C18.2399 22 18.2236 21.9837 18.2236 21.9512L18.2334 15.0811C18.2334 15.055 18.2464 15.042 18.2725 15.042H19.3955C19.4215 15.042 19.4346 15.055 19.4346 15.0811L19.4443 21.9512C19.4443 21.9837 19.4313 22 19.4053 22ZM22.457 22H21.3291C21.2998 22 21.2852 21.9837 21.2852 21.9512V16.248H19.9863C19.9538 16.248 19.9375 16.2318 19.9375 16.1992L19.9473 15.0811C19.9473 15.055 19.9603 15.042 19.9863 15.042H23.7852C23.821 15.042 23.8389 15.055 23.8389 15.0811V16.1992C23.8389 16.2318 23.8258 16.248 23.7998 16.248H22.4863L22.4961 21.9512C22.4961 21.9837 22.4831 22 22.457 22ZM26.1777 22.0977C25.8229 22.0977 25.4958 22.0065 25.1963 21.8242C24.9001 21.6419 24.6608 21.3994 24.4785 21.0967C24.2995 20.7907 24.21 20.4554 24.21 20.0908L24.2197 16.9219C24.2197 16.5508 24.3092 16.2171 24.4883 15.9209C24.6641 15.6214 24.9017 15.3822 25.2012 15.2031C25.5007 15.0208 25.8262 14.9297 26.1777 14.9297C26.5423 14.9297 26.8695 15.0192 27.1592 15.1982C27.4521 15.3773 27.6865 15.6182 27.8623 15.9209C28.0413 16.2204 28.1309 16.554 28.1309 16.9219L28.1406 20.0908C28.1406 20.4554 28.0527 20.7891 27.877 21.0918C27.6979 21.3978 27.4603 21.6419 27.1641 21.8242C26.8678 22.0065 26.5391 22.0977 26.1777 22.0977ZM26.1777 20.8916C26.3796 20.8916 26.5553 20.8102 26.7051 20.6475C26.8548 20.4814 26.9297 20.2959 26.9297 20.0908L26.9199 16.9219C26.9199 16.7005 26.8499 16.5133 26.71 16.3604C26.57 16.2074 26.3926 16.1309 26.1777 16.1309C25.9727 16.1309 25.7969 16.2057 25.6504 16.3555C25.5039 16.5052 25.4307 16.694 25.4307 16.9219V20.0908C25.4307 20.3089 25.5039 20.4977 25.6504 20.6572C25.7969 20.8135 25.9727 20.8916 26.1777 20.8916ZM29.9863 22H28.9854C28.9333 22 28.9072 21.9772 28.9072 21.9316L28.8975 15.1201C28.8975 15.068 28.9235 15.042 28.9756 15.042H29.8789L31.5684 18.9824L31.5195 15.1201C31.5195 15.068 31.5488 15.042 31.6074 15.042H32.5986C32.6377 15.042 32.6572 15.068 32.6572 15.1201L32.667 21.9414C32.667 21.9805 32.6507 22 32.6182 22H31.7393L30.0059 18.3184L30.0791 21.9219C30.0791 21.974 30.0482 22 29.9863 22Z" fill="black"/>
<path d="M23.5771 33H22.4443C22.4118 33 22.3955 32.9837 22.3955 32.9512L22.4053 26.0811C22.4053 26.055 22.4183 26.042 22.4443 26.042H23.5674C23.5934 26.042 23.6064 26.055 23.6064 26.0811L23.6162 32.9512C23.6162 32.9837 23.6032 33 23.5771 33ZM25.584 33H24.583C24.5309 33 24.5049 32.9772 24.5049 32.9316L24.4951 26.1201C24.4951 26.068 24.5212 26.042 24.5732 26.042H25.4766L27.166 29.9824L27.1172 26.1201C27.1172 26.068 27.1465 26.042 27.2051 26.042H28.1963C28.2354 26.042 28.2549 26.068 28.2549 26.1201L28.2646 32.9414C28.2646 32.9805 28.2484 33 28.2158 33H27.3369L25.6035 29.3184L25.6768 32.9219C25.6768 32.974 25.6458 33 25.584 33ZM30.9746 33.0977C30.6133 33.0977 30.2829 33.0065 29.9834 32.8242C29.6872 32.6419 29.4512 32.3978 29.2754 32.0918C29.1029 31.7826 29.0166 31.4391 29.0166 31.0615L29.0264 27.9414C29.0264 27.5703 29.111 27.235 29.2803 26.9355C29.4495 26.6328 29.6823 26.3903 29.9785 26.208C30.278 26.0225 30.61 25.9297 30.9746 25.9297C31.3457 25.9297 31.6761 26.0192 31.9658 26.1982C32.2588 26.3773 32.4915 26.6198 32.6641 26.9258C32.8398 27.2285 32.9277 27.5671 32.9277 27.9414V28.4004C32.9277 28.4264 32.9147 28.4395 32.8887 28.4395H31.7656C31.7396 28.4395 31.7266 28.4264 31.7266 28.4004V27.9414C31.7266 27.7201 31.6549 27.5296 31.5117 27.3701C31.3685 27.2106 31.1895 27.1309 30.9746 27.1309C30.737 27.1309 30.5547 27.2122 30.4277 27.375C30.3008 27.5378 30.2373 27.7266 30.2373 27.9414V31.0615C30.2373 31.3057 30.3089 31.5059 30.4521 31.6621C30.5954 31.8151 30.7695 31.8916 30.9746 31.8916C31.1895 31.8916 31.3685 31.807 31.5117 31.6377C31.6549 31.4652 31.7266 31.2731 31.7266 31.0615V30.5977C31.7266 30.5716 31.7396 30.5586 31.7656 30.5586H32.8984C32.9245 30.5586 32.9375 30.5716 32.9375 30.5977V31.0615C32.9375 31.4359 32.8496 31.7777 32.6738 32.0869C32.4948 32.3929 32.2588 32.6387 31.9658 32.8242C31.6729 33.0065 31.3424 33.0977 30.9746 33.0977Z" fill="black"/>
</svg>
